<?xml version="1.0"?>
<svg fill="#ffaa00" xmlns="http://www.w3.org/2000/svg" viewBox="0 0 30 30" width="30px" height="30px">
    <path
        d="m 13.087888,2.7624806 h 3.824224 c 0.635778,0 1.147268,0.5114901 1.147268,1.1472674 v 8.030872 h 4.192306 c 0.85089,0 1.276335,1.027761 0.67402,1.630076 l -7.270808,7.275588 c -0.358521,0.358521 -0.946495,0.358521 -1.305016,0 L 7.0695138,13.570696 C 6.4671984,12.968381 6.8926434,11.94062 7.7435334,11.94062 H 11.94062 V 3.909748 c 0,-0.6357773 0.51149,-1.1472674 1.147268,-1.1472674 z M 27.237519,20.736337 v 5.353915 c 0,0.635777 -0.51149,1.147267 -1.147267,1.147267 H 3.909748 c -0.6357773,0 -1.1472674,-0.51149 -1.1472674,-1.147267 v -5.353915 c 0,-0.635777 0.5114901,-1.147267 1.1472674,-1.147267 h 7.012672 l 2.342338,2.342337 c 0.960836,0.960837 2.509647,0.960837 3.470484,0 L 19.07758,19.58907 h 7.012672 c 0.635777,0 1.147267,0.51149 1.147267,1.147267 z m -5.927548,4.206647 c 0,-0.52583 -0.430225,-0.956056 -0.956056,-0.956056 -0.525831,0 -0.956057,0.430226 -0.956057,0.956056 0,0.525831 0.430226,0.956057 0.956057,0.956057 0.525831,0 0.956056,-0.430226 0.956056,-0.956057 z m 3.05938,0 c 0,-0.52583 -0.430226,-0.956056 -0.956056,-0.956056 -0.525831,0 -0.956057,0.430226 -0.956057,0.956056 0,0.525831 0.430226,0.956057 0.956057,0.956057 0.52583,0 0.956056,-0.430226 0.956056,-0.956057 z" />
</svg>