<?xml version="1.0" encoding="UTF-8" standalone="no"?>
<!-- Created with Inkscape (http://www.inkscape.org/) -->

<svg
   width="30"
   height="30"
   viewBox="0 0 30 30"
   version="1.1"
   id="svg5"
   inkscape:export-filename="key.svg"
   inkscape:export-xdpi="96"
   inkscape:export-ydpi="96"
   inkscape:version="1.2.1 (9c6d41e410, 2022-07-14)"
   sodipodi:docname="drawing.svg"
   xmlns:inkscape="http://www.inkscape.org/namespaces/inkscape"
   xmlns:sodipodi="http://sodipodi.sourceforge.net/DTD/sodipodi-0.dtd"
   xmlns="http://www.w3.org/2000/svg"
   xmlns:svg="http://www.w3.org/2000/svg">
  <sodipodi:namedview
     id="namedview7"
     pagecolor="#505050"
     bordercolor="#eeeeee"
     borderopacity="1"
     inkscape:showpageshadow="0"
     inkscape:pageopacity="0"
     inkscape:pagecheckerboard="0"
     inkscape:deskcolor="#505050"
     inkscape:document-units="px"
     showgrid="false"
     inkscape:zoom="6.7277216"
     inkscape:cx="24.451071"
     inkscape:cy="6.2428267"
     inkscape:window-width="1366"
     inkscape:window-height="715"
     inkscape:window-x="-8"
     inkscape:window-y="22"
     inkscape:window-maximized="1"
     inkscape:current-layer="svg5" />
  <defs
     id="defs2">
    <symbol
       id="admin-links">
      <title
         id="title175">admin-links</title>
      <path
         d="m 17.74,2.76 a 4.321,4.321 0 0 1 0,6.1 l -1.53,1.52 c -1.12,1.12 -2.7,1.47 -4.14,1.09 l 2.62,-2.61 0.76,-0.77 0.76,-0.76 c 0.84,-0.84 0.84,-2.2 0,-3.04 a 2.13,2.13 0 0 0 -3.04,0 L 12.4,5.05 9.02,8.43 C 8.65,6.99 9,5.41 10.12,4.29 l 1.52,-1.53 a 4.321,4.321 0 0 1 6.1,0 z M 8.59,13.43 13.93,8.09 c 0.42,-0.42 0.42,-1.1 0,-1.52 -0.44,-0.43 -1.13,-0.39 -1.53,0 l -5.33,5.34 c -0.42,0.42 -0.42,1.1 0,1.52 0.44,0.43 1.13,0.39 1.52,0 z m -0.76,2.29 4.14,-4.15 c 0.38,1.44 0.03,3.02 -1.09,4.14 l -1.52,1.53 a 4.321,4.321 0 0 1 -6.1,0 4.321,4.321 0 0 1 0,-6.1 L 4.79,9.62 C 5.91,8.5 7.49,8.15 8.93,8.52 l -4.14,4.15 c -0.85,0.84 -0.85,2.2 0,3.05 0.84,0.84 2.2,0.84 3.04,0 z"
         id="path177" />
    </symbol>
    <symbol
       id="download">
      <title
         id="download-title">Download</title>
      <path
         d="m 216,0 h 80 c 13.3,0 24,10.7 24,24 v 168 h 87.7 c 17.8,0 26.7,21.5 14.1,34.1 L 269.7,378.3 c -7.5,7.5 -19.8,7.5 -27.3,0 L 90.1,226.1 C 77.5,213.5 86.4,192 104.2,192 H 192 V 24 C 192,10.7 202.7,0 216,0 Z m 296,376 v 112 c 0,13.3 -10.7,24 -24,24 H 24 C 10.7,512 0,501.3 0,488 V 376 c 0,-13.3 10.7,-24 24,-24 h 146.7 l 49,49 c 20.1,20.1 52.5,20.1 72.6,0 l 49,-49 H 488 c 13.3,0 24,10.7 24,24 z m -124,88 c 0,-11 -9,-20 -20,-20 -11,0 -20,9 -20,20 0,11 9,20 20,20 11,0 20,-9 20,-20 z m 64,0 c 0,-11 -9,-20 -20,-20 -11,0 -20,9 -20,20 0,11 9,20 20,20 11,0 20,-9 20,-20 z"
         id="path3729" />
    </symbol>
    <symbol
       id="key">
      <title
         id="key-title">key</title>
      <path
         d="M 512,176.001 C 512,273.203 433.202,352 336,352 c -11.22,0 -22.19,-1.062 -32.827,-3.069 l -24.012,27.014 A 23.999,23.999 0 0 1 261.223,384 H 224 v 40 c 0,13.255 -10.745,24 -24,24 h -40 v 40 c 0,13.255 -10.745,24 -24,24 H 24 C 10.745,512 0,501.255 0,488 v -78.059 c 0,-6.365 2.529,-12.47 7.029,-16.971 L 168.831,231.168 C 163.108,213.814 160,195.271 160,176 160,78.798 238.797,0.001 335.999,0 433.488,-0.001 512,78.511 512,176.001 Z M 336,128 c 0,26.51 21.49,48 48,48 26.51,0 48,-21.49 48,-48 0,-26.51 -21.49,-48 -48,-48 -26.51,0 -48,21.49 -48,48 z"
         id="path4109" />
    </symbol>
  </defs>
  <path
     d="M 512,176.001 C 512,273.203 433.202,352 336,352 c -11.22,0 -22.19,-1.062 -32.827,-3.069 l -24.012,27.014 A 23.999,23.999 0 0 1 261.223,384 H 224 v 40 c 0,13.255 -10.745,24 -24,24 h -40 v 40 c 0,13.255 -10.745,24 -24,24 H 24 C 10.745,512 0,501.255 0,488 v -78.059 c 0,-6.365 2.529,-12.47 7.029,-16.971 L 168.831,231.168 C 163.108,213.814 160,195.271 160,176 160,78.798 238.797,0.001 335.999,0 433.488,-0.001 512,78.511 512,176.001 Z M 336,128 c 0,26.51 21.49,48 48,48 26.51,0 48,-21.49 48,-48 0,-26.51 -21.49,-48 -48,-48 -26.51,0 -48,21.49 -48,48 z"
     id="path7589"
     style="fill:#000000;stroke:none"
     transform="matrix(0.0535423,0,0,0.0535423,1.2931712,1.2931712)" />
</svg>
