<?xml version="1.0"?>
<svg fill="#ffaa00" xmlns="http://www.w3.org/2000/svg" viewBox="0 0 30 30" width="30px" height="30px">

   <path
      d="m 28.706829,10.71667 c 0,5.204418 -4.219026,9.423391 -9.423445,9.423391 -0.600745,0 -1.188104,-0.05686 -1.757633,-0.164322 l -1.285658,1.446392 a 1.2849617,1.2849617 0 0 1 -0.960442,0.431283 h -1.993005 v 2.141692 c 0,0.709704 -0.575312,1.285016 -1.285015,1.285016 H 9.8599392 v 2.141692 c 0,0.709703 -0.575312,1.285015 -1.2850152,1.285015 H 2.5781864 c -0.7097032,0 -1.2850152,-0.575312 -1.2850152,-1.285015 v -4.179459 c 0,-0.340797 0.1354085,-0.667672 0.3763488,-0.908666 l 8.663251,-8.663251 C 10.026349,12.741265 9.8599392,11.74843 9.8599392,10.716616 c 0,-5.2044186 4.2189728,-9.4233913 9.4233908,-9.4234448 5.219786,-5.35e-5 9.423499,4.2036595 9.423499,9.4234988 z M 19.283384,8.1465856 c 0,1.4194064 1.150624,2.5700304 2.57003,2.5700304 1.419407,0 2.570031,-1.150624 2.570031,-2.5700304 0,-1.4194064 -1.150624,-2.5700304 -2.570031,-2.5700304 -1.419406,0 -2.57003,1.150624 -2.57003,2.5700304 z" />
</svg>