<?xml version="1.0"?>
<svg fill="#ffaa00" xmlns="http://www.w3.org/2000/svg" viewBox="0 0 30 30" width="30px" height="30px">
    <path
        d="m 24.378296,5.6217012 a 5.5971855,5.5971855 0 0 1 0,7.9016058 l -1.981878,1.968925 c -1.450785,1.450785 -3.49743,1.904158 -5.362727,1.411924 l 3.393802,-3.380849 0.984463,-0.997416 0.984462,-0.984463 c 1.08809,-1.08809 1.08809,-2.8497588 0,-3.9378488 a 2.7590848,2.7590848 0 0 0 -3.93785,0 l -0.997416,0.9844624 -4.378264,4.3782644 c -0.479277,-1.865297 -0.02571,-3.9119383 1.424881,-5.3627268 l 1.968925,-1.981878 a 5.5971855,5.5971855 0 0 1 7.901602,0 z M 12.52589,19.443031 l 6.917141,-6.91714 c 0.544047,-0.544047 0.544047,-1.424882 0,-1.968925 -0.569951,-0.5569963 -1.463738,-0.505186 -1.981879,0 l -6.904185,6.917144 c -0.544046,0.544043 -0.544046,1.424878 0,1.968921 0.569951,0.557001 1.463738,0.505187 1.968923,0 z m -0.984463,2.966341 5.362728,-5.375681 c 0.492234,1.865297 0.03878,3.911943 -1.411924,5.362727 l -1.968923,1.981879 a 5.5971855,5.5971855 0 0 1 -7.9016062,0 5.5971855,5.5971855 0 0 1 0,-7.901602 L 7.6035796,14.50777 C 9.0543662,13.056981 11.10101,12.603612 12.966306,13.082888 l -5.3627264,5.37568 c -1.1010431,1.088091 -1.1010431,2.84976 0,3.950804 1.08809,1.08809 2.8497594,1.08809 3.9378474,0 z" />
</svg>