<?xml version="1.0" encoding="UTF-8" standalone="no"?>
<!-- Created with Inkscape (http://www.inkscape.org/) -->

<svg
   width="1000"
   height="500"
   viewBox="0 0 264.58334 132.29166"
   version="1.1"
   id="svg5"
   xml:space="preserve"
   inkscape:version="1.2.1 (9c6d41e410, 2022-07-14)"
   sodipodi:docname="py_web.svg"
   inkscape:export-filename="py_web.png"
   inkscape:export-xdpi="96"
   inkscape:export-ydpi="96"
   xmlns:inkscape="http://www.inkscape.org/namespaces/inkscape"
   xmlns:sodipodi="http://sodipodi.sourceforge.net/DTD/sodipodi-0.dtd"
   xmlns:xlink="http://www.w3.org/1999/xlink"
   xmlns="http://www.w3.org/2000/svg"
   xmlns:svg="http://www.w3.org/2000/svg"><sodipodi:namedview
     id="namedview7"
     pagecolor="#505050"
     bordercolor="#eeeeee"
     borderopacity="1"
     inkscape:showpageshadow="0"
     inkscape:pageopacity="0"
     inkscape:pagecheckerboard="0"
     inkscape:deskcolor="#505050"
     inkscape:document-units="mm"
     showgrid="false"
     inkscape:zoom="0.2973261"
     inkscape:cx="183.30042"
     inkscape:cy="568.39948"
     inkscape:window-width="1366"
     inkscape:window-height="715"
     inkscape:window-x="-8"
     inkscape:window-y="22"
     inkscape:window-maximized="1"
     inkscape:current-layer="layer1" /><defs
     id="defs2"><clipPath
       clipPathUnits="userSpaceOnUse"
       id="clipPath422"><rect
         style="fill:#000000;stroke:none;stroke-width:0.264583;stroke-linecap:round;stroke-linejoin:round;paint-order:stroke fill markers"
         id="rect424"
         width="91.384407"
         height="155.25975"
         x="14.472457"
         y="18.247881"
         ry="2.6139975" /></clipPath><symbol
       id="python"><title
         id="python-title">Python</title><path
         d="m 167.8,36.4 c -45.2,8 -53.4,24.7 -53.4,55.6 v 40.7 h 106.9 v 13.6 h -147 c -31.1,0 -58.3,18.7 -66.8,54.2 -9.8,40.7 -10.2,66.1 0,108.6 7.6,31.6 25.7,54.2 56.8,54.2 H 101 v -48.8 c 0,-35.3 30.5,-66.4 66.8,-66.4 h 106.8 c 29.7,0 53.4,-24.5 53.4,-54.3 V 91.9 c 0,-29 -24.4,-50.7 -53.4,-55.6 -35.8,-5.9 -74.7,-5.6 -106.8,0.1 z m -6.7,28.4 c 11,0 20.1,9.2 20.1,20.4 0,11.2 -9,20.3 -20.1,20.3 -11.1,0 -20.1,-9.1 -20.1,-20.3 0.1,-11.3 9,-20.4 20.1,-20.4 z m 185.2,81.4 v 47.5 c 0,36.8 -31.2,67.8 -66.8,67.8 H 172.7 c -29.2,0 -53.4,25 -53.4,54.3 v 101.8 c 0,29 25.2,46 53.4,54.3 33.8,9.9 66.3,11.7 106.8,0 26.9,-7.8 53.4,-23.5 53.4,-54.3 V 376.9 H 226.2 v -13.6 h 160.2 c 31.1,0 42.6,-21.7 53.4,-54.2 11.2,-33.5 10.7,-65.7 0,-108.6 -7.7,-30.9 -22.3,-54.2 -53.4,-54.2 H 346.3 Z M 286.2,404 c 11.1,0 20.1,9.1 20.1,20.3 0,11.3 -9,20.4 -20.1,20.4 -11,0 -20.1,-9.2 -20.1,-20.4 0.1,-11.3 9.1,-20.3 20.1,-20.3 z"
         id="path3085" /></symbol><symbol
       id="globe"><title
         id="globe-title">Globe</title><path
         d="m 364.215,192 h 131.43 c 5.439,20.419 8.354,41.868 8.354,64 0,22.132 -2.915,43.581 -8.354,64 h -131.43 c 5.154,-43.049 4.939,-86.746 0,-128 z M 185.214,352 c 10.678,53.68 33.173,112.514 70.125,151.992 0.221,10e-4 0.44,0.008 0.661,0.008 0.221,0 0.44,-0.008 0.661,-0.008 C 293.673,464.449 316.128,405.578 326.786,352 Z M 359.344,160 H 484.729 C 452.802,84.024 384.128,27.305 300.95,12.075 331.188,55.195 349.771,108.407 359.344,160 Z m -27.35,32 H 180.006 c -5.339,41.914 -5.345,86.037 0,128 h 151.989 c 5.339,-41.915 5.345,-86.037 -10e-4,-128 z M 152.656,352 H 27.271 c 31.926,75.976 100.6,132.695 183.778,147.925 C 180.803,456.789 162.226,403.575 152.656,352 Z m 206.688,0 C 349.769,403.605 331.181,456.814 300.95,499.925 384.128,484.695 452.802,427.976 484.728,352 Z M 326.786,160 C 316.108,106.32 293.612,47.486 256.661,8.008 256.44,8.008 256.221,8 256,8 255.779,8 255.56,8.008 255.339,8.008 218.327,47.551 195.872,106.422 185.214,160 Z M 16.355,192 C 10.915,212.419 8,233.868 8,256 c 0,22.132 2.915,43.581 8.355,64 h 131.43 c -4.939,-41.254 -5.154,-84.951 0,-128 z M 152.656,160 C 162.231,108.398 180.817,55.19 211.05,12.075 127.872,27.305 59.198,84.024 27.271,160 Z"
         id="path6101" /></symbol></defs><g
     inkscape:label="Layer 1"
     inkscape:groupmode="layer"
     id="layer1"><use
       xlink:href="#python"
       style="fill:#ffaa00;stroke:none;fill-opacity:1"
       id="use4478"
       transform="matrix(0.22320715,0,0,0.22320715,14.887399,9.0033833)" /><use
       xlink:href="#globe"
       style="fill:#ffffff;stroke:none"
       id="use8582"
       transform="matrix(0.20161331,0,0,0.20161331,148.08319,14.532826)" /></g></svg>
